{"title":"Vigilante Diaries 2016 Movies BRRip XviD New Source +Sample ☻rDX","uid":15040914,"size":739239771,"categoryP":"video","categoryS":"movies","magnet":"?xt=urn:btih:157ad78ebe72bad8b68744be6763682a2f5bdf95&amp;dn=Vigilante+Diaries+2016+Movies+BRRip+XviD+New+Source+%2BSample+%E2%98%BBrDX&amp;tr=udp%3A%2F%2Ftracker.leechers-paradise.org%3A6969&amp;tr=udp%3A%2F%2Fzer0day.ch%3A1337&amp;tr=udp%3A%2F%2Fopen.demonii.com%3A1337&amp;tr=udp%3A%2F%2Ftracker.coppersurfer.tk%3A6969&amp;tr=udp%3A%2F%2Fexodus.desync.com%3A6969","seeders":1,"leechers":0,"uploader":"basicssom","files":2,"time":1466619271,"description":"----------------------------------------------------------------\r\nVigilante Diaries 2016 English Movies BRRip XviD AAC New Source with Sample ☻rDX☻\r\n\r\nSCREEN SHOTS &amp; POSTER:\r\n  \nhttp://mobileshosting.com/2016/6/dinner/index.htm  \nhttp://mobileshosting.com/2016/6/dinner/1.html  \nhttp://mobileshosting.com/2016/6/dinner/2.html  \nhttp://mobileshosting.com/2016/6/dinner/3.html  \nhttp://mobileshosting.com/2016/6/dinner/4.html  \nhttp://mobileshosting.com/2016/6/dinner/5.html  \nhttp://mobileshosting.com/2016/6/dinner/6.html  \nhttp://mobileshosting.com/2016/6/dinner/7.html  \nhttp://mobileshosting.com/2016/6/dinner/8.html  \nhttp://mobileshosting.com/2016/6/dinner/9.html  \nhttp://mobileshosting.com/2016/6/dinner/10.html\r\n\r\nFormat                                   : Matroska\r\nFormat version                           : Version 4 / Version 2\r\nFile size                                : 693 MiB\r\nDuration                                 : 1h 47mn\r\nOverall bit rate                         : 899 Kbps\r\nMovie name                               : Vigilante Diaries 2016 English Movies BRRip XviD AAC New Source ☻rDX☻\r\n\r\nVideo\r\nID                                       : 1\r\nFormat                                   : MPEG-4 Visual\r\nFormat profile                           : Advanced   \r\nFormat settings, BVOP                    : Yes\r\nFormat settings, QPel                    : No\r\nFormat settings, GMC                     : No warppoints\r\nFormat settings, Matrix                  : Default (H.263)\r\nCodec ID                                 : V_MS/VFW/FOURCC / XVID\r\nCodec ID/Hint                            : XviD\r\nDuration                                 : 1h 47mn\r\nBit rate                                 : 769 Kbps\r\nWidth                                    : 640 pixels\r\nHeight                                   : 272 pixels\r\nDisplay aspect ratio                     : 2.35:1\r\nFrame rate mode                          : Constant\r\nFrame rate                               : 23.976 fps\r\nColor space                              : YUV\r\nChroma subsampling                       : 4:2:0\r\nBit depth                                : 8 bits\r\nScan type                                : Progressive\r\nCompression mode                         : Lossy\r\nBits/(Pixel*Frame)                       : 0.184\r\nStream size                              : 593 MiB (86%)\r\nTitle                                    : ☻rDX☻\r\nWriting library                          : XviD 65\r\nDefault                                  : Yes\r\nForced                                   : No\r\n\r\nAudio\r\nID                                       : 2\r\nFormat                                   : MPEG Audio\r\nFormat version                           : Version 1\r\nFormat profile                           : Layer 3\r\nMode                                     : Joint stereo\r\nMode extension                           : MS Stereo\r\nCodec ID                                 : A_MPEG/L3\r\nCodec ID/Hint                            : MP3\r\nDuration                                 : 1h 47mn\r\nBit rate mode                            : Constant\r\nBit rate                                 : 112 Kbps\r\nChannel(s)                               : 2 channels\r\nSampling rate                            : 48.0 KHz\r\nCompression mode                         : Lossy\r\nStream size                              : 86.3 MiB (12%)\r\nTitle                                    : ☻rDX☻\r\nWriting library                          : LAME3.99r\r\nEncoding settings                        : -m j -V 4 -q 3 -lowpass 15.6 -b 112\r\nDefault                                  : Yes\r\nForced                                   : No\r\n\r\nIMDB \nhttp://www.imdb.com/title/tt3903852/","torrent":{"xt":"urn:btih:157ad78ebe72bad8b68744be6763682a2f5bdf95","amp;dn":"Vigilante+Diaries+2016+Movies+BRRip+XviD+New+Source+%2BSample+%E2%98%BBrDX","amp;tr":["udp%3A%2F%2Ftracker.leechers-paradise.org%3A6969","udp%3A%2F%2Fzer0day.ch%3A1337","udp%3A%2F%2Fopen.demonii.com%3A1337","udp%3A%2F%2Ftracker.coppersurfer.tk%3A6969","udp%3A%2F%2Fexodus.desync.com%3A6969"],"infoHash":"157ad78ebe72bad8b68744be6763682a2f5bdf95","infoHashBuffer":{"type":"Buffer","data":[21,122,215,142,190,114,186,216,182,135,68,190,103,99,104,42,47,91,223,149]},"announce":[],"urlList":[]}}